<svg width="29" height="29" viewBox="0 0 29 29" fill="none" xmlns="http://www.w3.org/2000/svg">
<path d="M14.5007 3.02344C8.16898 3.02344 3.02148 8.17094 3.02148 14.5026C3.02148 20.8343 8.16898 25.9818 14.5007 25.9818C20.8323 25.9818 25.9798 20.8343 25.9798 14.5026C25.9798 8.17094 20.8323 3.02344 14.5007 3.02344ZM19.334 15.7109H14.5007C13.8361 15.7109 13.2923 15.1672 13.2923 14.5026V8.46094C13.2923 7.79635 13.8361 7.2526 14.5007 7.2526C15.1652 7.2526 15.709 7.79635 15.709 8.46094V13.2943H19.334C19.9986 13.2943 20.5423 13.838 20.5423 14.5026C20.5423 15.1672 19.9986 15.7109 19.334 15.7109Z" fill="#FF9838"/>
</svg>
