<svg width="30" height="16" viewBox="0 0 30 16" fill="none" xmlns="http://www.w3.org/2000/svg">
<path d="M22.6404 0.640625C21.393 0.640625 20.1618 0.958613 19.0794 1.5592C18.4764 1.89277 17.9238 2.3092 17.436 2.79699L14.9997 5.23332L12.5628 2.79641C12.075 2.30861 11.5218 1.89219 10.9224 1.56102C9.8376 0.958614 8.60578 0.640625 7.35961 0.640625C3.30117 0.640625 0 3.94244 0 8.00023C0 12.0586 3.30117 15.3598 7.35961 15.3598C8.60643 15.3598 9.83818 15.0413 10.9188 14.4413C11.5218 14.1089 12.075 13.6919 12.5634 13.2035L14.9999 10.767L17.4366 13.2035C17.925 13.6931 18.4788 14.1095 19.077 14.4401C20.1606 15.0419 21.393 15.3599 22.6404 15.3599C26.6982 15.3598 30 12.0586 30 8.00023C30 3.94244 26.6982 0.640625 22.6404 0.640625ZM9.79682 10.4362C9.5676 10.6654 9.30902 10.8604 9.02344 11.0176C8.51162 11.3026 7.95123 11.4467 7.35961 11.4467C5.45941 11.4467 3.91318 9.90049 3.91318 8.00023C3.91318 6.09998 5.45936 4.55381 7.35961 4.55381C7.95123 4.55381 8.51162 4.69842 9.02643 4.984C9.30844 5.13939 9.56766 5.33498 9.79682 5.56361L12.2328 8.00023L9.79682 10.4362ZM22.6404 11.4472C22.0482 11.4472 21.4878 11.3032 20.9718 11.0165C20.691 10.8617 20.433 10.6667 20.2032 10.4369L17.7672 8.00023L20.2038 5.56426C20.4324 5.33504 20.691 5.14004 20.9754 4.98283C21.4879 4.699 22.0482 4.55445 22.6404 4.55445C24.5412 4.55445 26.0869 6.10062 26.0869 8.00088C26.0869 9.90113 24.5412 11.4472 22.6404 11.4472Z" fill="#FF9838"/>
</svg>
