<svg width="20" height="20" viewBox="0 0 20 20" fill="none" xmlns="http://www.w3.org/2000/svg">
<path d="M4.27002 2.50305L13.73 6.89508L11.2 8.0183C10.48 8.34922 9.50999 8.3392 8.79999 8.02834L1.25 4.60897C1.73 3.90703 2.42998 3.32526 3.28998 2.94421L4.27002 2.50305ZM16.71 2.94421L12.32 0.988852C10.87 0.337049 9.12999 0.337049 7.67999 0.988852L6.09003 1.69074L15.54 6.07298L18.75 4.60897C18.27 3.90703 17.57 3.32526 16.71 2.94421ZM0.630005 5.9726C0.540005 6.30352 0.5 6.64448 0.5 6.99545V13.0522C0.5 14.787 1.56998 16.3414 3.28998 17.1035L7.69 19.0588C8.18 19.2895 8.71 19.4298 9.25 19.5V9.71293C8.88 9.65276 8.52 9.5424 8.19 9.40201L0.630005 5.9726ZM19.37 5.9726L11.81 9.40201C11.48 9.5424 11.12 9.65276 10.75 9.71293V19.5C11.29 19.4298 11.82 19.2895 12.32 19.0588L16.71 17.1035C18.43 16.3414 19.5 14.787 19.5 13.0522V6.99545C19.5 6.64448 19.46 6.30352 19.37 5.9726Z" fill="#8D8C98"/>
</svg>
