<svg width="28" height="24" viewBox="0 0 28 24" fill="none" xmlns="http://www.w3.org/2000/svg">
<path d="M25.1327 4.94661C25.1327 7.15995 23.666 9.03999 21.6527 9.65332C21.8793 8.91999 21.9993 8.13333 21.9993 7.33333C21.9993 4.41333 20.426 1.85346 18.0927 0.466797C18.7327 0.173464 19.4394 0 20.1994 0C22.9194 0 25.1327 2.21328 25.1327 4.94661ZM24.1327 11.0667C23.5727 10.9067 22.9593 10.9866 22.466 11.2666C21.8793 11.5866 21.2527 11.7735 20.6127 11.8135C20.346 12.2135 20.0394 12.5999 19.6794 12.9466C22.2527 13.7866 24.1327 16.0133 24.5593 18.6667H25.4793C26.0927 18.6667 26.6527 18.3468 26.9327 17.8268C27.1994 17.3335 27.3327 16.7732 27.3327 16.2132V15.2666C27.3327 13.2799 26.0126 11.5601 24.1327 11.0667ZM9.90601 0.466797C9.26601 0.173464 8.55932 0 7.79932 0C5.07932 0 2.86605 2.21328 2.86605 4.94661C2.86605 7.15995 4.3327 9.03999 6.34603 9.65332C6.11936 8.91999 5.99935 8.13333 5.99935 7.33333C5.99935 4.41333 7.57267 1.85346 9.90601 0.466797ZM8.31934 12.9466C7.95934 12.5999 7.65265 12.2135 7.38599 11.8135C6.74599 11.7735 6.11938 11.5866 5.53271 11.2666C5.03938 10.9866 4.42605 10.9067 3.86605 11.0667C1.98605 11.5601 0.666016 13.2799 0.666016 15.2666V16.2132C0.666016 16.7732 0.799333 17.3335 1.066 17.8268C1.346 18.3468 1.90602 18.6667 2.50602 18.6667H3.43937C3.86604 16.0133 5.746 13.7866 8.31934 12.9466ZM18.7727 14.7601C18.546 14.7068 18.306 14.6667 18.066 14.6667C17.6127 14.6667 17.146 14.7867 16.746 15.0133C15.8927 15.48 14.946 15.7201 13.9993 15.7201C13.0527 15.7201 12.106 15.48 11.2527 15.0133C10.8527 14.7867 10.386 14.6667 9.9327 14.6667C9.6927 14.6667 9.45266 14.7068 9.22599 14.7601C6.93266 15.3734 5.33268 17.4665 5.33268 19.8665V21.0267C5.33268 21.7067 5.50601 22.3866 5.82601 22.9733C6.15934 23.6133 6.82601 24 7.57267 24H20.426C21.1727 24 21.8394 23.6133 22.1727 22.9733C22.4927 22.3866 22.666 21.7067 22.666 21.0267V19.8665C22.666 17.4665 21.066 15.3734 18.7727 14.7601ZM19.9993 7.33333C19.9993 4.02 17.3127 1.33333 13.9993 1.33333C10.686 1.33333 7.99935 4.02 7.99935 7.33333C7.99935 10.6467 10.686 13.3333 13.9993 13.3333C17.3127 13.3333 19.9993 10.6467 19.9993 7.33333Z" fill="#FF9838"/>
</svg>
