<svg id="Layer_1" data-name="Layer 1" xmlns="http://www.w3.org/2000/svg" xmlns:xlink="http://www.w3.org/1999/xlink" viewBox="0 0 2500 2064.2"><defs><style>.cls-1{fill:url(#linear-gradient);}.cls-2{fill:url(#linear-gradient-2);}.cls-3{fill:url(#linear-gradient-3);}</style><linearGradient id="linear-gradient" x1="1000.12" y1="1369.65" x2="837.02" y2="787.12" gradientUnits="userSpaceOnUse"><stop offset="0" stop-color="#d26f32"/><stop offset="0.39" stop-color="#f2933c"/><stop offset="1" stop-color="#eab942"/></linearGradient><linearGradient id="linear-gradient-2" x1="1315.5" y1="556.93" x2="1137.34" y2="1119.54" gradientUnits="userSpaceOnUse"><stop offset="0" stop-color="#f2933c"/><stop offset="1" stop-color="#eab942"/></linearGradient><linearGradient id="linear-gradient-3" x1="1678.86" y1="558.82" x2="1501.47" y2="1119" xlink:href="#linear-gradient-2"/></defs><path class="cls-1" d="M1026.28,1380.37l47.06-13.56c-4.1-3.3-59.29-26.36-78.62-89.24-18.87-61.38-37.45-122.44-37.45-122.44a300.87,300.87,0,0,1,0-176.28l87-283.81H872.09A105.68,105.68,0,0,0,771,769.81l-63.33,207a308.13,308.13,0,0,0,0,180.39L744,1275.4a148.75,148.75,0,0,0,142.48,105.19Z"/><path class="cls-2" d="M1450.67,695.43l-171.08-.27a105.7,105.7,0,0,0-101.21,74.73l-155.3,506.87c-25.51,83.26-100.44,104-152.28,104,15.28,0-4,.38,119.61.38h19.92A311.34,311.34,0,0,0,1308,1161Z"/><path class="cls-3" d="M1808.16,695H1619.41a83.05,83.05,0,0,0-79.4,58.72L1404.68,1196c-40.15,131-163.31,184.74-163.31,184.74h123.78a315,315,0,0,0,301.13-222.69Z"/><path class="cls-1" d="M1026.28,1380.37l47.06-13.56c-4.1-3.3-59.29-26.36-78.62-89.24-18.87-61.38-37.45-122.44-37.45-122.44a300.87,300.87,0,0,1,0-176.28l87-283.81H872.09A105.68,105.68,0,0,0,771,769.81l-63.33,207a308.13,308.13,0,0,0,0,180.39L744,1275.4a148.75,148.75,0,0,0,142.48,105.19Z"/><path class="cls-2" d="M1450.67,695.43l-171.08-.27a105.7,105.7,0,0,0-101.21,74.73l-155.3,506.87c-25.51,83.26-100.44,104-152.28,104,15.28,0-4,.38,119.61.38h19.92A311.34,311.34,0,0,0,1308,1161Z"/><path class="cls-3" d="M1808.16,695H1619.41a83.05,83.05,0,0,0-79.4,58.72L1404.68,1196c-40.15,131-163.31,184.74-163.31,184.74h123.78a315,315,0,0,0,301.13-222.69Z"/></svg>