<svg id="Layer_1" data-name="Layer 1" xmlns="http://www.w3.org/2000/svg" viewBox="0 0 2500 716.48"><defs><style>.cls-1{fill:#000808;}</style></defs><path class="cls-1" d="M359,477l16.33-4.7c-1.43-1.15-20.57-9.14-27.27-30.95-6.55-21.29-13-42.46-13-42.46a104.26,104.26,0,0,1,0-61.14l30.15-98.43H305.5a36.65,36.65,0,0,0-35.05,25.93l-22,71.79a106.79,106.79,0,0,0,0,62.56l12.56,41a51.58,51.58,0,0,0,49.41,36.48Z"/><path class="cls-1" d="M506.16,239.48l-59.34-.09a36.67,36.67,0,0,0-35.1,25.92L357.86,441.1C349,470,323,477.17,305.05,477.17c5.3,0-1.39.13,41.48.13h6.91A108,108,0,0,0,456.68,401Z"/><path class="cls-1" d="M630.14,239.35H564.68a28.8,28.8,0,0,0-27.54,20.36L490.21,413.1c-13.93,45.45-56.64,64.07-56.64,64.07H476.5a109.22,109.22,0,0,0,104.43-77.23Z"/><path class="cls-1" d="M916.17,281.61,854.84,427.84,810,337l-44.81,90.81L703.9,281.61h30.66l33,84.32,42.45-89,42.46,89,33-84.32Z"/><path class="cls-1" d="M1076.54,281.61V423.12h-28.3V402.48c-11.5,15-28,23-47.17,23-41.27,0-70.75-32.72-70.75-73.11s29.48-73.12,70.75-73.12c19.17,0,35.67,8,47.17,23V281.61Zm-28.3,70.76a44.81,44.81,0,1,0-44.81,44.81A44.79,44.79,0,0,0,1048.24,352.37Z"/><path class="cls-1" d="M1100.12,281.61h30.66l37.74,82.55,37.74-82.55h30.66l-68.4,146.23Z"/><path class="cls-1" d="M1382.26,365.34h-107c4.43,22.11,23.59,31.84,46,31.84,16.81,0,31.84-6.19,43-14.15l9.43,25.35c-3.83,3.24-22.4,17.1-53.06,17.1-49.54,0-74.3-33.31-74.3-73.11,0-40.4,27.12-73.12,70.46-73.12,37.44,0,66.34,27.71,66.34,73.7A97.81,97.81,0,0,1,1382.26,365.34Zm-28-25.95c-.59-13.85-11.79-31.84-38.62-31.84-25.94,0-39.8,18-40.39,31.84Z"/><path class="cls-1" d="M1553,215.57V423.12h-28.3V402.48c-11.5,15-28,23-47.17,23-41.27,0-70.76-32.72-70.76-73.11s29.49-73.12,70.76-73.12c19.16,0,35.67,8,47.17,23V215.57Zm-28.3,136.8a44.81,44.81,0,1,0-44.81,44.81A44.8,44.8,0,0,0,1524.65,352.37Z"/><path class="cls-1" d="M1717.16,365.34h-107c4.43,22.11,23.59,31.84,46,31.84,16.8,0,31.84-6.19,43-14.15l9.43,25.35c-3.83,3.24-22.4,17.1-53.06,17.1-49.53,0-74.3-33.31-74.3-73.11,0-40.4,27.13-73.12,70.46-73.12,37.45,0,66.34,27.71,66.34,73.7A97.81,97.81,0,0,1,1717.16,365.34Zm-28-25.95c-.59-13.85-11.8-31.84-38.62-31.84-26,0-39.81,18-40.4,31.84Z"/><path class="cls-1" d="M1859.55,378.9c0,28-19.75,46.58-56.6,46.58-31.25,0-54.84-13.86-61.32-20.05l11.2-27.71c11.2,11.2,33.32,19.16,49.24,19.46,18.27.29,29.18-6.49,29.18-15,0-10.61-10.32-14.74-27.71-18-46.29-8.26-57.2-21.82-57.2-44.52,0-23.58,22.71-40.39,57.49-40.39,12.68,0,32.14,3.24,51.3,13.56l-9.73,26.54c-6.48-4.72-24.17-11.5-41.57-11.8-13.85-.29-29.18,2.66-29.18,12.38,0,10.62,16.8,12.68,33.31,15.93C1849.53,343.82,1859.55,361.5,1859.55,378.9Z"/><path class="cls-1" d="M1883.14,236.8A21.23,21.23,0,1,1,1904.36,258,21.13,21.13,0,0,1,1883.14,236.8Zm7.07,44.81h28.3V423.12h-28.3Z"/><path class="cls-1" d="M2095.4,281.61V414.28c0,59-30.37,86.67-75.47,86.67-36.56,0-59.55-18.57-66-23.58L1968,452c11.79,9.14,26.83,20.64,51.89,20.64,29.48,0,47.17-19.46,47.17-54.25V402.48c-11.5,15-28,23-47.17,23-41.28,0-70.76-32.72-70.76-73.11s29.48-73.12,70.76-73.12c19.16,0,35.67,8,47.17,23V281.61Zm-28.3,70.76a44.82,44.82,0,1,0-44.81,44.81A44.8,44.8,0,0,0,2067.1,352.37Z"/><path class="cls-1" d="M2262.85,341.75v81.37h-28.3v-79c0-22.7-7.66-36.56-31.84-36.56-17.1,0-38.91,13.56-38.91,37.74v77.83h-28.31V281.61h28.31v16.51c8.25-9.44,22.11-18.87,44.22-18.87C2241.63,279.25,2262.85,299.89,2262.85,341.75Z"/></svg>