<svg id="Layer_1" data-name="Layer 1" xmlns="http://www.w3.org/2000/svg" xmlns:xlink="http://www.w3.org/1999/xlink" viewBox="0 0 2457.42 580.62"><defs><style>.cls-1{fill:url(#linear-gradient);}.cls-2{fill:url(#linear-gradient-2);}.cls-3{fill:url(#linear-gradient-3);}.cls-4{fill:#fff;}</style><linearGradient id="linear-gradient" x1="281.25" y1="366.99" x2="236.51" y2="207.21" gradientUnits="userSpaceOnUse"><stop offset="0" stop-color="#d26f32"/><stop offset="0.39" stop-color="#f2933c"/><stop offset="1" stop-color="#eab942"/></linearGradient><linearGradient id="linear-gradient-2" x1="367.75" y1="144.08" x2="318.88" y2="298.39" gradientUnits="userSpaceOnUse"><stop offset="0" stop-color="#f2933c"/><stop offset="1" stop-color="#eab942"/></linearGradient><linearGradient id="linear-gradient-3" x1="467.4" y1="144.6" x2="418.75" y2="298.24" xlink:href="#linear-gradient-2"/></defs><path class="cls-1" d="M288.42,369.92l12.91-3.71c-1.13-.91-16.27-7.23-21.57-24.48-5.17-16.83-10.27-33.58-10.27-33.58a82.48,82.48,0,0,1,0-48.35L293.34,182H246.13a29,29,0,0,0-27.72,20.5L201,259.23a84.53,84.53,0,0,0,0,49.48L211,341.13A40.81,40.81,0,0,0,250.06,370Z"/><path class="cls-2" d="M404.82,182.06,357.9,182a29,29,0,0,0-27.76,20.5l-42.6,139C280.54,364.34,260,370,245.78,370c4.19,0-1.1.11,32.8.11h5.47a85.39,85.39,0,0,0,81.64-60.38Z"/><path class="cls-3" d="M502.87,182H451.1a22.78,22.78,0,0,0-21.78,16.1L392.21,319.37c-11,35.94-44.8,50.66-44.8,50.66h33.95A86.41,86.41,0,0,0,464,309Z"/><path class="cls-4" d="M729.07,215.38,680.58,331l-35.44-71.81L609.7,331,561.2,215.38h24.25l26.11,66.68,33.58-70.41,33.57,70.41,26.11-66.68Z"/><path class="cls-4" d="M855.9,215.38V327.29H833.52V311c-9.09,11.89-22.15,18.19-37.3,18.19-32.64,0-56-25.88-56-57.83s23.32-57.82,56-57.82c15.15,0,28.21,6.3,37.3,18.19V215.38Zm-22.38,55.95a35.44,35.44,0,1,0-35.44,35.44A35.42,35.42,0,0,0,833.52,271.33Z"/><path class="cls-4" d="M874.55,215.38H898.8l29.84,65.28,29.85-65.28h24.24L928.64,331Z"/><path class="cls-4" d="M1097.68,281.59H1013c3.5,17.49,18.66,25.18,36.38,25.18a59.34,59.34,0,0,0,34-11.19l7.46,20.05c-3,2.57-17.72,13.53-42,13.53-39.17,0-58.75-26.35-58.75-57.83,0-31.94,21.45-57.82,55.72-57.82,29.61,0,52.46,21.92,52.46,58.29A78.36,78.36,0,0,1,1097.68,281.59Zm-22.15-20.52c-.47-10.95-9.33-25.18-30.54-25.18-20.52,0-31.48,14.23-32,25.18Z"/><path class="cls-4" d="M1232.67,163.15V327.29h-22.38V311c-9.1,11.89-22.15,18.19-37.31,18.19-32.64,0-56-25.88-56-57.83s23.31-57.82,56-57.82c15.16,0,28.21,6.3,37.31,18.19V163.15Zm-22.38,108.18a35.44,35.44,0,1,0-35.44,35.44A35.43,35.43,0,0,0,1210.29,271.33Z"/><path class="cls-4" d="M1362.53,281.59H1277.9c3.5,17.49,18.65,25.18,36.37,25.18a59.34,59.34,0,0,0,34-11.19l7.46,20.05c-3,2.57-17.72,13.53-42,13.53-39.17,0-58.75-26.35-58.75-57.83,0-31.94,21.45-57.82,55.72-57.82,29.61,0,52.46,21.92,52.46,58.29A76.5,76.5,0,0,1,1362.53,281.59Zm-22.15-20.52c-.46-10.95-9.32-25.18-30.54-25.18-20.52,0-31.48,14.23-31.94,25.18Z"/><path class="cls-4" d="M1475.14,292.32c0,22.15-15.62,36.84-44.76,36.84-24.72,0-43.37-11-48.5-15.86l8.86-21.92c8.86,8.86,26.35,15.16,38.94,15.39,14.45.24,23.08-5.13,23.08-11.89,0-8.39-8.16-11.66-21.92-14.22-36.6-6.53-45.23-17.25-45.23-35.21,0-18.65,18-31.94,45.47-31.94,10,0,25.41,2.57,40.56,10.73l-7.69,21c-5.13-3.73-19.12-9.09-32.87-9.33-11-.23-23.09,2.1-23.09,9.8,0,8.39,13.29,10,26.35,12.59C1467.21,264.57,1475.14,278.56,1475.14,292.32Z"/><path class="cls-4" d="M1493.79,179.94a16.79,16.79,0,1,1,16.79,16.78A16.72,16.72,0,0,1,1493.79,179.94Zm5.6,35.44h22.38V327.29h-22.38Z"/><path class="cls-4" d="M1661.66,215.38V320.3c0,46.63-24,68.54-59.69,68.54a82.92,82.92,0,0,1-52.23-18.65l11.2-20.05c9.32,7.23,21.21,16.32,41,16.32,23.32,0,37.31-15.39,37.31-42.9V311c-9.1,11.89-22.15,18.19-37.31,18.19-32.64,0-56-25.88-56-57.83s23.31-57.82,56-57.82c15.16,0,28.21,6.3,37.31,18.19V215.38Zm-22.38,55.95a35.44,35.44,0,1,0-35.44,35.44A35.43,35.43,0,0,0,1639.28,271.33Z"/><path class="cls-4" d="M1794.09,262.94v64.35H1771.7V264.8c0-18-6.06-28.91-25.18-28.91-13.52,0-30.77,10.73-30.77,29.85v61.55h-22.39V215.38h22.39v13.05c6.53-7.46,17.48-14.92,35-14.92C1777.3,213.51,1794.09,229.83,1794.09,262.94Z"/><rect class="cls-4" x="1850.16" y="213.51" width="3.92" height="113.78"/><path class="cls-4" d="M1947.73,234.92c0,11.31-7.54,20.44-20.86,20.44h-12.23V214.48h12.23C1940.49,214.48,1947.73,223.61,1947.73,234.92Zm-5.84,0c0-8.09-5.53-14.6-13.5-14.6h-7.91v29.2h7.91C1936.36,249.52,1941.89,243,1941.89,234.92Z"/><path class="cls-4" d="M1978.39,255.36V214.48h5.84v40.88Z"/><path class="cls-4" d="M2055.75,234.92c0,11.55-8.39,20.92-19.94,20.92a20.92,20.92,0,1,1,0-41.84c8.27,0,14.6,4.62,18.06,11.43l-5.9,1.7a13.45,13.45,0,0,0-12.16-7.29,15.08,15.08,0,1,0,0,30.16,13.54,13.54,0,0,0,13.74-11.19h-15.2V233l21.28.06A17.69,17.69,0,0,1,2055.75,234.92Z"/><path class="cls-4" d="M2086.41,255.36V214.48h5.84v40.88Z"/><path class="cls-4" d="M2150.64,214.48v5.84h-10.7v35h-5.84v-35h-10.71v-5.84Z"/><path class="cls-4" d="M2200.7,246.6h-18.37l-3.95,8.76h-6.33l19.47-41.85L2211,255.36h-6.33Zm-2.68-5.84-6.5-14.36L2185,240.76Z"/><path class="cls-4" d="M2262.56,249.52v5.84h-22.38V214.48H2246v35Z"/><path class="cls-4" d="M1939.4,317.56H1921l-4,8.76h-6.33l19.46-41.85,19.47,41.85h-6.33Zm-2.68-5.84-6.51-14.35-6.5,14.35Z"/><path class="cls-4" d="M2015.85,305.88c0,11.56-8.39,20.92-19.95,20.92a20.92,20.92,0,0,1,0-41.84c8.27,0,14.6,4.62,18.07,11.43l-5.9,1.71a13.47,13.47,0,0,0-12.17-7.3,15.09,15.09,0,0,0,0,30.17,13.55,13.55,0,0,0,13.75-11.2h-15.21v-5.83l21.29.06A17.32,17.32,0,0,1,2015.85,305.88Z"/><path class="cls-4" d="M2052.35,291.28V303H2067v5.84h-14.6v11.68h17.52v5.84h-23.36V285.45h23.36v5.83Z"/><path class="cls-4" d="M2107.82,298.34v28H2102V284.47l28.22,28.95v-28H2136v41.84Z"/><path class="cls-4" d="M2198.27,316.52l2.49,5.48a19.29,19.29,0,0,1-12.77,4.8,20.92,20.92,0,1,1,0-41.84,19.23,19.23,0,0,1,12.77,4.74l-2.49,5.48a13.84,13.84,0,0,0-10.65-4.38,15.09,15.09,0,0,0,0,30.17A13.68,13.68,0,0,0,2198.27,316.52Z"/><path class="cls-4" d="M2261.1,285.45l-14.6,24.32v16.55h-5.83V309.77l-14.6-24.32h6.57l10.94,18.73,11-18.73Z"/></svg>