<svg id="Layer_1" data-name="Layer 1" xmlns="http://www.w3.org/2000/svg" xmlns:xlink="http://www.w3.org/1999/xlink" viewBox="0 0 2500 580.62"><defs><style>.cls-1{fill:url(#linear-gradient);}.cls-2{fill:url(#linear-gradient-2);}.cls-3{fill:url(#linear-gradient-3);}.cls-4{fill:#323333;}.cls-5{fill:#333232;}</style><linearGradient id="linear-gradient" x1="276.94" y1="381.86" x2="232.21" y2="222.09" gradientUnits="userSpaceOnUse"><stop offset="0" stop-color="#d26f32"/><stop offset="0.39" stop-color="#f2933c"/><stop offset="1" stop-color="#eab942"/></linearGradient><linearGradient id="linear-gradient-2" x1="363.44" y1="158.95" x2="314.58" y2="313.26" gradientUnits="userSpaceOnUse"><stop offset="0" stop-color="#f2933c"/><stop offset="1" stop-color="#eab942"/></linearGradient><linearGradient id="linear-gradient-3" x1="463.1" y1="159.47" x2="414.45" y2="313.11" xlink:href="#linear-gradient-2"/></defs><path class="cls-1" d="M284.12,384.8,297,381.08c-1.13-.9-16.27-7.23-21.57-24.47C270.29,339.77,265.19,323,265.19,323a82.48,82.48,0,0,1,0-48.35L289,196.83H241.83a29,29,0,0,0-27.72,20.51l-17.37,56.77a84.53,84.53,0,0,0,0,49.48L206.68,356a40.8,40.8,0,0,0,39.08,28.85Z"/><path class="cls-2" d="M400.52,196.94l-46.93-.07a29,29,0,0,0-27.75,20.49l-42.6,139c-7,22.84-27.55,28.53-41.77,28.53,4.19,0-1.1.11,32.81.11h5.46a85.39,85.39,0,0,0,81.65-60.38Z"/><path class="cls-3" d="M498.57,196.83H446.8A22.78,22.78,0,0,0,425,212.94L387.9,334.24c-11,35.94-44.79,50.67-44.79,50.67h33.95a86.38,86.38,0,0,0,82.59-61.08Z"/><path class="cls-4" d="M724.77,230.25,676.27,345.9l-35.44-71.81L605.39,345.9,556.9,230.25h24.25l26.11,66.68,33.57-70.41,33.58,70.41,26.11-66.68Z"/><path class="cls-4" d="M851.6,230.25V342.17H829.22V325.85c-9.09,11.89-22.15,18.18-37.3,18.18-32.65,0-56-25.88-56-57.82s23.31-57.82,56-57.82c15.15,0,28.21,6.29,37.3,18.18V230.25Zm-22.38,56a35.44,35.44,0,1,0-35.44,35.44A35.42,35.42,0,0,0,829.22,286.21Z"/><path class="cls-4" d="M870.25,230.25H894.5l29.84,65.29,29.84-65.29h24.25L924.34,345.9Z"/><path class="cls-4" d="M1093.38,296.47h-84.64c3.5,17.48,18.65,25.18,36.37,25.18a59.42,59.42,0,0,0,34-11.19l7.46,20.05c-3,2.56-17.71,13.52-42,13.52-39.17,0-58.76-26.34-58.76-57.82,0-31.94,21.45-57.82,55.73-57.82,29.61,0,52.46,21.91,52.46,58.29A78.36,78.36,0,0,1,1093.38,296.47ZM1071.23,276c-.47-11-9.33-25.18-30.55-25.18-20.51,0-31.47,14.22-31.94,25.18Z"/><path class="cls-4" d="M1228.37,178V342.17H1206V325.85c-9.09,11.89-22.15,18.18-37.3,18.18-32.64,0-56-25.88-56-57.82s23.32-57.82,56-57.82c15.15,0,28.21,6.29,37.3,18.18V178ZM1206,286.21a35.44,35.44,0,1,0-35.44,35.44A35.42,35.42,0,0,0,1206,286.21Z"/><path class="cls-4" d="M1358.23,296.47H1273.6c3.49,17.48,18.65,25.18,36.37,25.18a59.42,59.42,0,0,0,34-11.19l7.46,20.05c-3,2.56-17.72,13.52-42,13.52-39.17,0-58.75-26.34-58.75-57.82,0-31.94,21.45-57.82,55.72-57.82,29.61,0,52.46,21.91,52.46,58.29A76.5,76.5,0,0,1,1358.23,296.47ZM1336.08,276c-.46-11-9.32-25.18-30.54-25.18-20.52,0-31.48,14.22-31.94,25.18Z"/><path class="cls-4" d="M1470.84,307.19c0,22.15-15.62,36.84-44.77,36.84-24.71,0-43.36-11-48.49-15.85l8.86-21.92c8.86,8.86,26.34,15.16,38.93,15.39,14.46.23,23.09-5.13,23.09-11.89,0-8.4-8.16-11.66-21.92-14.22-36.61-6.53-45.23-17.26-45.23-35.21,0-18.65,18-31.94,45.46-31.94,10,0,25.42,2.56,40.57,10.72l-7.69,21c-5.13-3.73-19.12-9.1-32.88-9.33-11-.23-23.08,2.1-23.08,9.79,0,8.4,13.29,10,26.35,12.59C1462.91,279.45,1470.84,293.44,1470.84,307.19Z"/><path class="cls-4" d="M1489.49,194.81a16.79,16.79,0,1,1,16.78,16.79A16.71,16.71,0,0,1,1489.49,194.81Zm5.59,35.44h22.39V342.17h-22.39Z"/><path class="cls-4" d="M1657.36,230.25V335.17c0,46.63-24,68.55-59.69,68.55a82.92,82.92,0,0,1-52.23-18.65l11.2-20.05c9.32,7.22,21.21,16.32,41,16.32,23.31,0,37.3-15.39,37.3-42.9V325.85c-9.09,11.89-22.15,18.18-37.3,18.18-32.64,0-56-25.88-56-57.82s23.32-57.82,56-57.82c15.15,0,28.21,6.29,37.3,18.18V230.25Zm-22.39,56a35.44,35.44,0,1,0-35.44,35.44A35.42,35.42,0,0,0,1635,286.21Z"/><path class="cls-4" d="M1789.78,277.82v64.35H1767.4V279.68c0-17.95-6.06-28.91-25.18-28.91-13.52,0-30.77,10.73-30.77,29.84v61.56h-22.39V230.25h22.39v13.06c6.52-7.46,17.48-14.92,35-14.92C1773,228.39,1789.78,244.71,1789.78,277.82Z"/><path class="cls-5" d="M1943.43,249.8c0,11.31-7.54,20.43-20.86,20.43h-12.23V229.36h12.23C1936.19,229.36,1943.43,238.48,1943.43,249.8Zm-5.84,0c0-8.09-5.53-14.6-13.5-14.6h-7.91v29.19h7.91C1932.06,264.39,1937.59,257.88,1937.59,249.8Z"/><path class="cls-5" d="M1974.09,270.23V229.36h5.83v40.87Z"/><path class="cls-5" d="M2051.45,249.8c0,11.55-8.39,20.92-19.95,20.92a20.93,20.93,0,0,1,0-41.85c8.28,0,14.6,4.63,18.07,11.44l-5.9,1.7a13.47,13.47,0,0,0-12.17-7.3,15.09,15.09,0,0,0,0,30.17,13.56,13.56,0,0,0,13.75-11.19H2030v-5.84l21.29.06A17.69,17.69,0,0,1,2051.45,249.8Z"/><path class="cls-5" d="M2082.11,270.23V229.36H2088v40.87Z"/><path class="cls-5" d="M2146.34,229.36v5.84h-10.7v35h-5.84v-35h-10.71v-5.84Z"/><path class="cls-5" d="M2196.4,261.47H2178l-4,8.76h-6.33l19.46-41.84,19.47,41.84h-6.33Zm-2.68-5.84-6.51-14.35-6.5,14.35Z"/><path class="cls-5" d="M2258.26,264.39v5.84h-22.39V229.36h5.84v35Z"/><path class="cls-5" d="M1935.1,332.44h-18.37l-4,8.75h-6.32l19.46-41.84,19.46,41.84h-6.32Zm-2.68-5.84-6.51-14.36-6.51,14.36Z"/><path class="cls-5" d="M2011.55,320.76c0,11.55-8.39,20.92-20,20.92a20.92,20.92,0,1,1,0-41.84c8.27,0,14.6,4.62,18.06,11.43l-5.9,1.7a13.45,13.45,0,0,0-12.16-7.3,15.09,15.09,0,0,0,0,30.17,13.55,13.55,0,0,0,13.75-11.19h-15.21v-5.84l21.29.06A17.69,17.69,0,0,1,2011.55,320.76Z"/><path class="cls-5" d="M2048.05,306.16v11.68h14.6v5.84h-14.6v11.67h17.52v5.84h-23.36V300.32h23.36v5.84Z"/><path class="cls-5" d="M2103.52,313.22v28h-5.84V299.35l28.22,28.95v-28h5.84v41.85Z"/><path class="cls-5" d="M2190.13,300.32v5.84h-10.7v35h-5.84v-35h-10.71v-5.84Z"/><path class="cls-5" d="M2251.44,300.32v22.87c0,10.77-4.86,18.49-15.57,18.49-10.94,0-15.57-7.72-15.57-18.49V300.32h5.84v24.82c0,6.32,3.59,10.7,9.73,10.7s9.73-4.38,9.73-10.7V300.32Z"/><path class="cls-5" d="M2305.94,341.19l-10.16-14.11h-6.38v14.11h-5.84V300.32h12.65c10.64,0,15.57,5.35,15.57,13.08,0,6.32-3.47,11.49-9.55,13.14l10.52,14.65Zm-16.54-19.95h8.7c4.25,0,7.84-2.19,7.84-7.48s-3.47-7.6-7.72-7.6h-8.82Z"/><rect class="cls-5" x="1845.86" y="228.39" width="3.92" height="113.78"/></svg>